HIERARCHY
ROOT Hips
{
	OFFSET 0.000000 0.000000 0.000000
	CHANNELS 6 Xposition Yposition Zposition Zrotation Yrotation Xrotation 
	JOINT LHipJoint
	{
		OFFSET 0.000000 0.000000 0.000000
		CHANNELS 3 Zrotation Yrotation Xrotation
		JOINT LeftUpLeg
		{
			OFFSET 1.363060 -1.794630 0.839290
			CHANNELS 3 Zrotation Yrotation Xrotation
			JOINT LeftLeg
			{
				OFFSET 2.448110 -6.726130 0.000000
				CHANNELS 3 Zrotation Yrotation Xrotation
				JOINT LeftFoot
				{
					OFFSET 2.562200 -7.039590 0.000000
					CHANNELS 3 Zrotation Yrotation Xrotation
					JOINT LeftToeBase
					{
						OFFSET 0.157640 -0.433110 2.322550
						CHANNELS 3 Zrotation Yrotation Xrotation
						End Site
						{
							OFFSET 0.000000 0.000000 0.000000
						}
					}
				}
			}
		}
	}
	JOINT RHipJoint
	{
		OFFSET 0.000000 0.000000 0.000000
		CHANNELS 3 Zrotation Yrotation Xrotation
		JOINT RightUpLeg
		{
			OFFSET -1.305520 -1.794630 0.839290
			CHANNELS 3 Zrotation Yrotation Xrotation
			JOINT RightLeg
			{
				OFFSET -2.542530 -6.985550 0.000000
				CHANNELS 3 Zrotation Yrotation Xrotation
				JOINT RightFoot
				{
					OFFSET -2.568260 -7.056230 0.000000
					CHANNELS 3 Zrotation Yrotation Xrotation
					JOINT RightToeBase
					{
						OFFSET -0.164730 -0.452590 2.363150
						CHANNELS 3 Zrotation Yrotation Xrotation
						End Site
						{
							OFFSET 0.000000 0.000000 0.000000
						}
					}
				}
			}
		}
	}
}
MOTION
Frames: 22
Frame Time: 0.008333
2.729043 16.327925 1.972328 -4.704700 -85.446156 24.417179 -11.308719 -0.283819 1.916890 1.592036 7.488853 -43.347512 -1.190398 1.995331 37.881344 2.276288 11.660504 -6.974174 0.439500 -0.000000 -65.286500 9.711364 1.592733 -1.947371 -1.283291 -20.060657 -33.230546 1.810928 -1.587286 30.200783 -2.091395 -10.556162 -1.559276 -1.807000 -0.000000 -79.685400
2.702151 16.338166 2.007695 -1.831421 -82.530992 21.646215 -11.170861 -0.208839 2.334549 1.686482 5.702843 -43.806335 -1.141969 1.888814 37.343797 2.110693 10.624806 -6.756994 0.446900 -0.000000 -65.446799 9.832372 1.568993 -2.252903 -1.413909 -21.644112 -31.976123 1.846117 -1.529850 29.442826 -2.263777 -11.639125 -1.279651 -2.022400 0.000001 -79.563100
2.673845 16.354674 2.041570 0.179275 -79.505002 19.797630 -11.052737 -0.133085 2.776725 1.706581 3.795809 -44.246503 -1.096373 1.768769 36.623990 1.942458 9.609614 -6.363472 0.479900 -0.000000 -65.603700 9.929789 1.528308 -2.543382 -1.646811 -23.231776 -30.617652 1.881181 -1.453904 28.469318 -2.430991 -12.734720 -0.853338 -2.285400 -0.000000 -79.461700
2.644140 16.376915 2.074029 1.758623 -76.392625 18.449012 -10.935802 -0.049583 3.240940 1.668206 1.781370 -44.664669 -1.055646 1.637992 35.720399 1.772727 8.623081 -5.787811 0.531400 0.000000 -65.764000 10.022250 1.478917 -2.811810 -1.971504 -24.778675 -29.167441 1.910342 -1.358905 27.296464 -2.594633 -13.850722 -0.282603 -2.605500 -0.000000 -79.340601
2.613181 16.404243 2.105049 3.098523 -73.219195 17.411563 -10.809038 0.043412 3.723042 1.582587 -0.331421 -45.046451 -1.021261 1.497918 34.630128 1.603284 7.678016 -5.029262 0.594400 0.000000 -65.935600 10.121267 1.426034 -3.054370 -2.382820 -26.253599 -27.638580 1.929025 -1.246505 25.943900 -2.756278 -14.993585 0.429069 -2.992000 0.000000 -79.256000
2.581237 16.435869 2.134389 4.305938 -70.014367 16.574930 -10.664228 0.145433 4.215997 1.456914 -2.533314 -45.364729 -0.995129 1.349573 33.349036 1.436608 6.791884 -4.092111 0.662899 -0.000000 -66.121700 10.235948 1.375270 -3.271066 -2.882923 -27.635952 -26.041637 1.933260 -1.120342 24.441011 -2.916579 -16.162524 1.269155 -3.450300 -0.000000 -79.188700
2.548208 16.470767 2.162513 5.401040 -66.809768 15.925816 -10.498389 0.253373 4.717950 1.315635 -4.805495 -45.620508 -0.978091 1.195011 31.884661 1.275212 5.977787 -2.988324 0.732200 0.000000 -66.307200 10.368793 1.326100 -3.457560 -3.442595 -28.889841 -24.409360 1.920797 -0.983234 22.824391 -3.078524 -17.364594 2.203024 -3.981000 0.000000 -78.940200
2.514992 16.508105 2.189034 6.432039 -63.638904 15.392953 -10.307440 0.363962 5.218129 1.164833 -7.137072 -45.772534 -0.972054 1.035722 30.240409 1.122839 5.260194 -1.734461 0.800299 0.000000 -66.495701 10.524765 1.285435 -3.623492 -4.070134 -30.028645 -22.739800 1.889184 -0.839748 21.113292 -3.241672 -18.599033 3.235560 -4.592400 0.000000 -78.837899
2.481687 16.546726 2.214362 7.393848 -60.537921 14.981096 -10.091612 0.471755 5.713242 1.030250 -9.503807 -45.824827 -0.977428 0.873647 28.433620 0.983000 4.657337 -0.353465 0.868800 -0.000000 -66.658800 10.702524 1.251437 -3.768192 -4.732931 -31.032027 -21.070610 1.839422 -0.694600 19.358804 -3.406612 -19.855092 4.307238 -5.270000 0.000000 -78.439000
2.449206 16.585810 2.238557 8.294071 -57.540458 14.657096 -9.853750 0.571662 6.194429 0.927069 -11.883282 -45.758143 -0.994729 0.711770 26.488741 0.859062 4.187456 1.125502 0.941700 -0.000000 -66.786400 10.899118 1.226411 -3.902342 -5.421745 -31.921873 -19.402006 1.771737 -0.550344 17.568404 -3.573020 -21.136385 5.424444 -6.020900 -0.000000 -78.122900
2.418279 16.624433 2.261757 9.126429 -54.681264 14.409070 -9.598943 0.658038 6.655361 0.873450 -14.246385 -45.576207 -1.023141 0.552821 24.440509 0.754024 3.864448 2.669481 1.026000 -0.000000 -66.853800 11.108479 1.208641 -4.031578 -6.113980 -32.707233 -17.754118 1.689722 -0.410627 15.775606 -3.738328 -22.422316 6.544305 -6.827100 -0.000001 -77.636400
2.389744 16.661865 2.284114 9.886134 -51.991357 14.220288 -9.334424 0.726153 7.088971 0.880871 -16.561854 -45.286701 -1.061016 0.399740 22.332624 0.670010 3.695563 4.241551 1.129700 -0.000000 -66.840500 11.323023 1.196127 -4.162324 -6.791368 -33.406281 -16.138620 1.597037 -0.277461 13.995586 -3.900167 -23.700586 7.650587 -7.679000 -0.000001 -77.029500
2.364319 16.697536 2.305610 10.570890 -49.498812 14.073758 -9.069093 0.772753 7.488228 0.952105 -18.794398 -44.904274 -1.106001 0.255417 20.216487 0.607760 3.677839 5.803585 1.259600 -0.000000 -66.729801 11.534401 1.186168 -4.299129 -7.438888 -34.038231 -14.566852 1.498216 -0.152147 12.240450 -4.055327 -24.954124 8.728068 -8.563000 -0.000001 -76.312300
2.342658 16.731000 2.326178 11.178965 -47.227003 13.953532 -8.812778 0.796182 7.846339 1.079263 -20.905979 -44.449878 -1.155306 0.122599 18.148341 0.566415 3.796564 7.317366 1.419300 0.000000 -66.511200 11.734199 1.175809 -4.444925 -8.045171 -34.622333 -13.049991 1.398415 -0.035514 10.520195 -4.199730 -26.160641 9.765059 -9.462301 -0.000000 -75.492300
2.325229 16.762014 2.345641 11.712685 -45.193742 13.845641 -8.575330 0.796611 8.157253 1.242728 -22.857115 -43.947068 -1.206426 0.003591 16.184824 0.543276 4.024369 8.747394 1.606700 0.000000 -66.184500 11.915201 1.162564 -4.600219 -8.604040 -35.175858 -11.600957 1.302842 0.071958 8.843752 -4.329204 -27.295570 10.754531 -10.357800 0.000000 -74.596400
2.312406 16.790575 2.363824 12.172112 -43.412647 13.744433 -8.367113 0.775077 8.414954 1.417285 -24.604411 -43.423343 -1.257001 -0.099654 14.379395 0.533813 4.320796 10.063720 1.812700 -0.000000 -65.761300 12.071442 1.143136 -4.759861 -9.104829 -35.690221 -10.229555 1.211552 0.171975 7.199898 -4.445688 -28.376476 11.723418 -11.263801 -0.000000 -73.843699
2.303734 16.816435 2.380203 12.580456 -41.882875 13.626728 -8.190646 0.735041 8.619336 1.560710 -26.127888 -42.891132 -1.308106 -0.187386 12.767573 0.533389 4.652070 11.246260 2.027400 -0.000000 -65.258600 12.201847 1.121644 -4.931796 -9.575825 -36.241530 -8.966067 1.143225 0.257830 5.660463 -4.528135 -29.245790 12.579940 -12.053700 -0.000000 -72.710600
2.299135 16.839970 2.394772 12.935528 -40.608441 13.505322 -8.054102 0.678041 8.766509 1.651737 -27.389472 -42.379303 -1.358543 -0.259167 11.381690 0.535675 4.967853 12.282260 2.232100 0.000000 -64.710800 12.304540 1.094109 -5.101623 -9.997310 -36.774320 -7.815172 1.088137 0.334755 4.181639 -4.590057 -29.996711 13.406866 -12.798300 -0.000000 -71.744500
2.297858 16.861327 2.407387 13.249217 -39.583171 13.385480 -7.959388 0.606551 8.856618 1.669924 -28.372497 -41.908023 -1.408969 -0.316164 10.235396 0.535300 5.229985 13.170297 2.410600 0.000000 -64.153800 12.382008 1.060267 -5.260466 -10.366332 -37.266843 -6.789643 1.043520 0.403756 2.756861 -4.635357 -30.649573 14.229466 -13.512600 0.000000 -71.116000
2.298886 16.880418 2.417575 13.546577 -38.784448 13.249654 -7.898767 0.523574 8.897016 1.593317 -29.097175 -41.475763 -1.463007 -0.361561 9.317848 0.529302 5.427721 13.920962 2.557400 -0.000000 -63.618899 12.439329 1.029778 -5.422965 -10.730428 -37.826855 -5.925935 1.034292 0.455242 1.496306 -4.636351 -30.976245 14.914298 -13.997900 -0.000000 -70.107500
2.301724 16.897803 2.425720 13.814753 -38.209574 13.140442 -7.878486 0.429409 8.883252 1.441141 -29.540913 -41.122051 -1.517565 -0.395437 8.631840 0.512903 5.519982 14.542273 2.654000 0.000001 -63.150300 12.479413 0.990218 -5.553018 -11.018389 -38.258733 -5.195984 1.020473 0.503928 0.244244 -4.637995 -31.307191 15.660646 -14.524100 -0.000000 -69.735100
2.304807 16.912826 2.431215 14.096840 -37.815009 13.016889 -7.879864 0.327114 8.831744 1.199190 -29.773335 -40.825351 -1.578837 -0.422988 8.138143 0.487365 5.537560 15.057535 2.713500 -0.000000 -62.762700 12.508902 0.965554 -5.693160 -11.336489 -38.823828 -4.665297 1.054820 0.529504 -0.761116 -4.584599 -31.194262 16.217274 -14.705899 -0.000000 -69.037199
